<?xml version="1.0" standalone="no"?>
<!DOCTYPE svg PUBLIC "-//W3C//DTD SVG 20010904//EN"
 "http://www.w3.org/TR/2001/REC-SVG-20010904/DTD/svg10.dtd">
<svg version="1.0" xmlns="http://www.w3.org/2000/svg"
 width="500.000000pt" height="500.000000pt" viewBox="0 0 500.000000 500.000000"
 preserveAspectRatio="xMidYMid meet">

<g transform="translate(0.000000,500.000000) scale(0.100000,-0.100000)"
fill="#000000" stroke="none">
<path d="M651 4557 c-28 -14 -54 -38 -72 -67 l-29 -45 0 -1943 c0 -1932 0
-1943 20 -1983 13 -24 39 -51 68 -69 l47 -30 1519 0 1519 0 36 22 c42 26 54
39 81 90 18 34 20 57 20 287 l0 250 203 3 c224 3 246 9 317 80 72 72 70 45 70
708 l0 595 -24 51 c-13 28 -41 65 -62 82 -63 52 -114 62 -321 62 l-183 0 0
418 c0 380 -2 419 -18 443 -23 36 -1026 1045 -1051 1058 -13 8 -349 11 -1058
11 l-1038 0 -44 -23z m1949 -610 c0 -348 1 -378 20 -432 29 -84 62 -122 139
-159 l66 -31 390 -5 390 -5 0 -330 0 -330 -1135 -5 -1135 -5 -45 -23 c-50 -26
-91 -69 -118 -122 -16 -32 -17 -83 -17 -630 0 -544 2 -599 18 -641 24 -62 81
-115 150 -139 55 -20 83 -20 1172 -20 l1115 0 0 -182 c0 -101 -4 -189 -8 -196
-7 -10 -294 -12 -1403 -10 l-1394 3 -3 1795 c-1 987 0 1805 3 1818 l5 22 895
0 895 0 0 -373z m-122 -1533 c12 -8 22 -19 22 -25 0 -5 22 -55 48 -112 26 -56
73 -157 103 -224 30 -67 58 -121 62 -120 4 1 57 108 116 237 79 170 116 238
133 247 34 18 282 18 297 -1 8 -9 10 -160 9 -542 l-3 -529 -145 0 -145 0 -5
270 c-6 300 -1 292 -68 139 -114 -261 -102 -247 -207 -242 -68 3 -61 -5 -134
158 -18 41 -47 106 -65 144 l-31 69 -5 -269 -5 -269 -139 -3 c-95 -2 -143 1
-152 9 -12 10 -14 94 -14 521 1 285 5 520 10 534 9 24 10 24 153 24 113 0 147
-3 165 -16z m1702 7 c25 -7 25 -7 25 -131 l0 -125 -228 -3 -228 -2 3 -73 3
-72 193 -3 193 -2 -3 -118 -3 -117 -190 -5 -190 -5 0 -80 0 -80 233 -3 233 -2
-3 -128 -3 -127 -380 0 -380 0 -3 529 c-1 382 1 533 9 542 9 11 76 14 353 13
187 -1 352 -4 366 -8z"/>
</g>
</svg>
